<?xml version="1.0" encoding="UTF-8" standalone="no"?>
<!-- Created with Inkscape (http://www.inkscape.org/) -->

<svg
   xmlns:dc="http://purl.org/dc/elements/1.1/"
   xmlns:cc="http://creativecommons.org/ns#"
   xmlns:rdf="http://www.w3.org/1999/02/22-rdf-syntax-ns#"
   xmlns:svg="http://www.w3.org/2000/svg"
   xmlns="http://www.w3.org/2000/svg"
   xmlns:sodipodi="http://sodipodi.sourceforge.net/DTD/sodipodi-0.dtd"
   xmlns:inkscape="http://www.inkscape.org/namespaces/inkscape"
   width="690.69531"
   height="620.52496"
   id="svg3589"
   version="1.1"
   inkscape:version="0.48.4 r9939"
   sodipodi:docname="duck.svg">
  <defs
     id="defs3591">
    <inkscape:perspective
       sodipodi:type="inkscape:persp3d"
       inkscape:vp_x="-39.28371 : 479.28652 : 1"
       inkscape:vp_y="0 : 1000 : 0"
       inkscape:vp_z="747.32233 : 346.70399 : 1"
       inkscape:persp3d-origin="382.5 : 330 : 1"
       id="perspective3598" />
    <inkscape:perspective
       id="perspective3608"
       inkscape:persp3d-origin="0.5 : 0.33333333 : 1"
       inkscape:vp_z="1 : 0.5 : 1"
       inkscape:vp_y="0 : 1000 : 0"
       inkscape:vp_x="0 : 0.5 : 1"
       sodipodi:type="inkscape:persp3d" />
  </defs>
  <sodipodi:namedview
     inkscape:document-units="in"
     pagecolor="#ffffff"
     bordercolor="#666666"
     borderopacity="1.0"
     inkscape:pageopacity="0.0"
     inkscape:pageshadow="2"
     inkscape:zoom="0.72"
     inkscape:cx="466.86591"
     inkscape:cy="381.52935"
     inkscape:current-layer="g3628"
     id="namedview3593"
     showgrid="false"
     inkscape:window-width="1920"
     inkscape:window-height="1018"
     inkscape:window-x="-8"
     inkscape:window-y="-8"
     inkscape:window-maximized="1"
     inkscape:snap-grids="true" />
  <metadata
     id="metadata3595">
    <rdf:RDF>
      <cc:Work
         rdf:about="">
        <dc:format>image/svg+xml</dc:format>
        <dc:type
           rdf:resource="http://purl.org/dc/dcmitype/StillImage" />
        <dc:title></dc:title>
      </cc:Work>
    </rdf:RDF>
  </metadata>
  <g
     inkscape:label="Layer 1"
     inkscape:groupmode="layer"
     id="layer1"
     transform="translate(-50.928682,-361.09191)">
    <g
       id="g3628"
       transform="matrix(5.9031646,0,0,5.9031646,-2128.9663,-1450.5053)">
      <path
         id="path3297"
         d="m 470.18739,326.66258 c -4.8905,0 -8.79104,3.96765 -8.79104,8.85815 l 0,10.40161 c 2.06772,1.0216 4.41124,1.61058 6.84493,1.61058 8.86678,0 16.03862,-7.5726 16.03862,-16.91102 0,-1.36185 -0.1808,-2.69036 -0.46975,-3.95932 l -13.62276,0 z"
         style="fill:#ffffff;fill-opacity:1;stroke:#000000;stroke-width:4;stroke-linejoin:round;stroke-miterlimit:4;stroke-opacity:1;stroke-dasharray:none;display:inline" />
      <path
         sodipodi:nodetypes="cscsccscscscsc"
         id="path2278"
         d="m 443.47872,309.88577 c -13.04271,0 -23.62173,10.88772 -23.62173,24.29281 0,7.73156 3.50926,14.61 8.99236,19.05845 -3.24364,-0.33783 -6.56215,-0.53686 -9.93186,-0.53686 -4.86291,0 -9.60524,0.45112 -14.22673,1.14082 -3.88471,-8.12683 -12.93385,-15.10633 -20.40967,-17.24032 -10.11889,11.16129 -12.09795,22.85721 -12.00219,33.28352 0.11133,12.12244 3.61854,21.56039 8.5888,28.85152 11.51583,6.47355 25.35236,10.2674 40.19722,10.2674 12.48057,0 24.22346,-2.68562 34.4931,-7.38179 6.567,-7.88883 10.53583,-17.98219 10.53583,-28.99031 0,-7.85774 -2.0187,-15.23013 -5.5699,-21.67563 4.06659,-4.3627 6.57651,-10.26267 6.57651,-16.7768 0,-13.40509 -10.57902,-24.2928 -23.62174,-24.29281 z"
         style="fill:#ffffff;fill-opacity:1;stroke:#000000;stroke-width:6;stroke-linejoin:round;stroke-miterlimit:4;stroke-opacity:1;stroke-dasharray:none;display:inline" />
      <path
         style="fill:#ff00ff"
         d="M 272.43963,583.47432 C 210.81958,579.41119 147.245,562.00483 92.924078,534.32399 81.927898,528.72057 81.149672,528.12083 77.429818,522.38355 64.58382,502.57063 49.533395,465.41231 43.672308,439.03891 32.811059,390.16606 33.75529,331.52203 46.111988,287.51589 c 8.237611,-29.33674 23.009144,-58.53139 41.773761,-82.5622 7.364657,-9.4315 5.998954,-9.30034 20.286541,-1.94846 32.73604,16.84476 64.02748,45.65116 79.31943,73.02019 6.75008,12.08109 8.95792,14.94957 13.15429,17.0904 4.63209,2.36312 10.01213,2.19093 37.42037,-1.19765 23.98452,-2.96529 68.93259,-3.72383 94.77195,-1.59935 22.71098,1.86725 26.74422,1.31034 32.09812,-4.43206 3.0774,-3.3007 4.47996,-7.49573 4.32875,-12.94718 -0.18507,-6.67278 -1.94591,-9.46887 -12.06156,-19.15287 -21.11405,-20.21307 -33.82044,-44.27028 -38.69324,-73.2585 -1.97794,-11.7667 -1.43975,-34.2197 1.09608,-45.72839 11.89985,-54.006637 55.59665,-93.568049 108.41638,-98.15605 74.09316,-6.435842 136.22102,57.492521 130.52697,134.30972 -1.95641,26.39356 -12.56744,52.43738 -29.28466,71.87654 -6.52717,7.58994 -8.2571,11.29839 -8.24631,17.67767 0.008,4.55046 0.80975,6.98002 5.09066,15.42023 12.33938,24.32816 20.07838,48.21837 24.11452,74.44125 2.31158,15.01837 2.71873,20.85576 2.70921,38.84201 -0.0259,48.96891 -13.99766,94.75887 -41.63801,136.46155 -10.46015,15.78188 -13.08954,18.46091 -21.81311,22.225 -63.61447,27.44869 -142.98974,40.45951 -217.0425,35.57658 l 0,0 z M 487.25701,150.76574 c 6.64748,-2.91675 13.69283,-9.97511 16.70384,-16.73467 1.50807,-3.38556 2.06686,-6.65659 2.07563,-12.15035 0.021,-13.15785 -6.65209,-23.436465 -18.96477,-29.211584 -4.60231,-2.158661 -6.81607,-2.554534 -14.28516,-2.554534 -7.66387,0 -9.57312,0.360606 -14.36265,2.712703 -20.23249,9.936015 -24.72952,35.832135 -8.96082,51.600835 9.65713,9.65714 24.54049,12.1529 37.79393,6.3376 l 0,0 z"
         id="path3007"
         inkscape:connector-curvature="0"
         transform="matrix(0.16940066,0,0,0.16940066,369.27566,306.88577)" />
      <path
         style="fill:#ffcc00"
         d="m 583.34262,227.1602 c -0.48784,-0.30151 0.84736,-5.577 2.9671,-11.72332 8.81807,-25.56859 11.08683,-51.28425 7.1792,-81.37363 l -0.6696,-5.15598 36.37456,0 36.37455,0 0.65732,6.62912 c 0.36152,3.64602 0.16959,10.52337 -0.42652,15.283 -4.38005,34.97247 -26.89471,62.91332 -59.06226,73.29668 -6.34713,2.04879 -21.75981,4.05433 -23.39435,3.04413 z"
         id="path3009"
         inkscape:connector-curvature="0"
         transform="matrix(0.16940066,0,0,0.16940066,369.27566,306.88577)" />
      <path
         style="fill:#ff00ff"
         d="M 262.6187,582.12797 C 206.48994,577.00153 150.58621,561.49758 99.729795,536.95349 92.243851,533.34065 84.391306,528.82384 82.279694,526.91613 70.515239,516.28765 49.218401,464.6618 42.598129,430.72371 36.937424,401.70472 35.207356,356.62104 38.709365,329.38675 45.084659,279.80761 59.285906,244.2292 88.057022,205.75602 c 4.200484,-5.61695 5.858541,-7.12017 7.853571,-7.12017 5.237677,0 31.540577,15.53272 46.440807,27.42482 9.78133,7.80662 25.66991,23.72412 32.65624,32.71568 3.46787,4.46322 9.07572,12.75534 12.46187,18.42692 3.38617,5.67159 7.09591,11.36331 8.24387,12.64826 4.7634,5.33185 12.46182,6.15926 33.54349,3.60518 25.78606,-3.12402 43.30919,-3.7873 78.5381,-2.97278 51.08235,1.18104 49.62492,1.21774 53.78633,-1.35415 5.28744,-3.26783 7.69471,-7.79631 7.75394,-14.58654 0.0273,-3.12827 -0.41158,-6.85877 -0.97527,-8.29002 -0.56368,-1.43125 -6.07209,-7.93623 -12.2409,-14.45552 -26.74357,-28.263 -38.01421,-55.1749 -38.01078,-90.76172 0.002,-15.98518 1.58985,-26.58324 5.94167,-39.64589 15.01335,-45.064797 52.89558,-76.995903 99.02715,-83.470428 29.87981,-4.193606 61.09377,4.188241 86.04687,23.106065 30.71337,23.284886 48.99151,60.631723 48.85909,99.831413 -0.10137,30.00528 -8.33854,54.12733 -26.83073,78.57211 -13.21473,17.46855 -13.40881,19.75445 -3.49898,41.21135 15.43147,33.41241 22.34627,59.97089 24.1226,92.65059 3.04054,55.9376 -10.29448,105.05134 -41.40594,152.50086 -10.91781,16.65127 -13.08848,18.44444 -30.66855,25.33501 -43.33082,16.98369 -86.63867,26.86925 -135.96528,31.03582 -20.73541,1.75151 -61.75153,1.73385 -81.11749,-0.035 l 0,5e-5 z M 487.23707,151.09468 c 6.39223,-3.02401 13.74323,-10.15973 16.71985,-16.23019 3.15126,-6.42663 3.07291,-19.05314 -0.16355,-26.3554 -3.00854,-6.78802 -11.0336,-14.139097 -18.48842,-16.935668 -7.7633,-2.912294 -20.18922,-2.504864 -27.09702,0.888476 -5.75333,2.82623 -12.32627,9.474712 -15.49536,15.673422 -1.98544,3.88352 -2.32965,5.9644 -2.29883,13.8973 0.0315,8.11508 0.37173,9.97438 2.61286,14.27977 2.50269,4.80788 9.19269,11.86606 13.36207,14.09743 8.50889,4.55383 22.03531,4.85411 30.8484,0.68486 l 0,0 z"
         id="path3011"
         inkscape:connector-curvature="0"
         transform="matrix(0.16940066,0,0,0.16940066,369.27566,306.88577)" />
      <rect
         style="fill:#ff00ff"
         id="rect3043"
         width="73.65696"
         height="26.516504"
         x="357.48175"
         y="430.98105"
         transform="matrix(0.16940066,0,0,0.16940066,369.27566,306.88577)" />
      <path
         style="fill:none;stroke:#000000;stroke-width:1px;stroke-linecap:butt;stroke-linejoin:miter;stroke-opacity:1"
         d="m 361.41013,258.13274 c 30.79091,35.76368 139.63921,27.18903 164.99158,-8.83883"
         id="path3093"
         inkscape:connector-curvature="0"
         transform="matrix(0.16940066,0,0,0.16940066,369.27566,306.88577)"
         sodipodi:nodetypes="cc" />
      <path
         sodipodi:type="arc"
         style="fill:#00ff00"
         id="path3109"
         sodipodi:cx="329.49213"
         sodipodi:cy="2.2975719"
         sodipodi:rx="100.66451"
         sodipodi:ry="96.245087"
         d="m 430.15664,2.2975719 a 100.66451,96.245087 0 1 1 -201.32903,0 100.66451,96.245087 0 1 1 201.32903,0 z"
         transform="matrix(0.21626372,0,0,0.22703749,372.03621,332.97714)" />
      <path
         transform="matrix(1.6225444,0,0,1.5047329,383.43917,305.48376)"
         d="m 43.129975,14.64191 c 0,1.406348 -1.104443,2.546419 -2.466843,2.546419 -1.3624,0 -2.466844,-1.140071 -2.466844,-2.546419 0,-1.406349 1.104444,-2.54642 2.466844,-2.54642 1.3624,0 2.466843,1.140071 2.466843,2.54642 z"
         sodipodi:ry="2.5464191"
         sodipodi:rx="2.4668436"
         sodipodi:cy="14.64191"
         sodipodi:cx="40.663132"
         id="path3307"
         style="fill:#050505;fill-opacity:1;stroke:#000000;stroke-width:2;stroke-linejoin:round;stroke-miterlimit:4;stroke-opacity:1;stroke-dasharray:none;display:inline"
         sodipodi:type="arc" />
    </g>
  </g>
</svg>
